<svg width="863" height="771" viewBox="0 0 863 771" fill="none" xmlns="http://www.w3.org/2000/svg">
<circle cx="171.5" cy="236.5" r="86.5" fill="#031037"/>
<circle cx="258.5" cy="385.5" r="86.5" fill="#031037"/>
<circle cx="172.5" cy="534.5" r="86.5" fill="#031037"/>
<circle cx="259.5" cy="684.5" r="86.5" fill="#031037"/>
<circle cx="603.5" cy="385.5" r="86.5" fill="#031037"/>
<circle cx="517.5" cy="534.5" r="86.5" fill="#031037"/>
<circle cx="604.5" cy="684.5" r="86.5" fill="#031037"/>
<circle cx="431.5" cy="385.5" r="86.5" fill="#031037"/>
<circle cx="345.5" cy="534.5" r="86.5" fill="#031037"/>
<circle cx="432.5" cy="684.5" r="86.5" fill="#031037"/>
<circle cx="776.5" cy="385.5" r="86.5" fill="#031037"/>
<circle cx="86.5" cy="385.5" r="86.5" fill="#031037"/>
<circle cx="690.5" cy="534.5" r="86.5" fill="#031037"/>
<circle cx="344.5" cy="236.5" r="86.5" fill="#031037"/>
<circle cx="430.5" cy="86.5" r="86.5" fill="#031037"/>
<circle cx="257.5" cy="86.5" r="86.5" fill="#031037"/>
<circle cx="517.5" cy="236.5" r="86.5" fill="#031037"/>
<circle cx="603.5" cy="86.5" r="86.5" fill="#031037"/>
<circle cx="776.5" cy="86.5" r="86.5" fill="#031037"/>
<circle cx="690.5" cy="236.5" r="86.5" fill="#031037"/>
</svg>
